<svg xmlns="http://www.w3.org/2000/svg" width="256" height="256" viewBox="0 0 67.7333 67.7333"><path d="M16.4915 44.743a.8554.8554 0 0 0-1.2096 0l-2.4195 2.42a.8547.8547 0 0 0 0 1.209l4.839 4.839c.1668.167.3858.25.6047.25.219 0 .438-.08.605-.25l2.4194-2.419a.8575.8575 0 0 0 .2504-.606.854.854 0 0 0-.2504-.604zm1.8146 6.653l-3.6288-3.629 1.2096-1.209 3.6288 3.629zm3.1567-12.208a.8558.8558 0 0 0-1.21 0 .8546.8546 0 0 0 0 1.209l3.004 3.004a.8527.8527 0 0 0 .6048.251c.219 0 .438-.08.6047-.251a.8557.8557 0 0 0 0-1.21zm-.2125 5.051a.8552.8552 0 0 0-1.2095 0 .8545.8545 0 0 0 0 1.209l3.0035 3.004c.1672.167.3862.25.6052.25.2185 0 .4375-.08.6047-.25a.8557.8557 0 0 0 0-1.21zM59.6527 8.678c-.683-.684-1.592-1.061-2.558-1.061-.5987 0-1.191.15-1.7108.435-.03.02-.06.03-.08.05l-6.698 4.695a.849.849 0 0 0-.327.451l-.502 1.651-17.5588 16.815-.497-.497c-.3228-.323-.4983-.759-.4935-1.228 0-.476.1935-.923.5314-1.261l2.8627-2.863c1.1747-1.174 1.1747-3.085 0-4.259-.569-.569-1.3254-.883-2.1298-.883s-1.561.314-2.13.883l-4.875 4.875c-.9423.942-2.044 2.535-2.5078 3.624-.7828 1.841-1.6566 3.511-1.9816 4.118-.8953.416-4.024 1.87-7.6096 3.501-2.2298 1.013-3.7212 2.753-4.2 4.898-.511 2.291.2257 4.816 2.022 6.927l6.5635 7.715c1.5797 1.857 3.493 2.852 5.4518 2.852.228 0 .457-.01.6853-.04 2.1936-.261 4.0786-1.742 5.3062-4.17l4.5066-8.832c.6932-.246 2.3278-.826 3.2824-1.192 1.194-.456 2.773-1.639 3.6542-2.519.568-.569.8818-1.326.8818-2.13 0-.805-.3138-1.561-.8818-2.13-1.174-1.174-3.085-1.174-4.2598 0-.5072.508-1.3328.508-1.8405 0l-.669-.669L51.175 18.298l1.65-.503a.849.849 0 0 0 .3558-.213l2.918-2.918c.3293.1.6722.147 1.015.147.9602 0 1.861-.374 2.54-1.052 1.4002-1.401 1.4002-3.68 0-5.08zm-24.043 31.634c.246-.246.572-.381.92-.381.3482 0 .6742.135.9202.381.2457.246.381.573.381.92 0 .348-.1353.674-.381.921-.753.752-2.16 1.788-3.0555 2.131-1.1875.454-3.538 1.28-3.5617 1.289-.2073.07-.3785.222-.4785.418l-4.663 9.14c-.962 1.902-2.3764 3.054-3.983 3.245-1.606.191-3.2517-.598-4.6324-2.221l-6.5635-7.715c-1.445-1.698-2.0484-3.683-1.6553-5.446.359-1.608 1.509-2.927 3.2384-3.713a980.199 980.199 0 0 0 7.8813-3.628c.1637-.08.299-.202.3865-.361.047-.09 1.1738-2.129 2.1897-4.517.378-.888 1.3596-2.301 2.1436-3.084l4.8747-4.876c.5074-.507 1.3333-.507 1.8402 0 .5078.508.5078 1.333 0 1.841l-2.8626 2.863c-.656.656-1.0223 1.527-1.0318 2.453-.01.932.3435 1.804.9944 2.454l.4707.471-4.9704 4.76a.856.856 0 0 0-.264.609c0 .23.088.451.2505.614l3.195 3.195c.1603.16.378.25.6047.25h.01c.2302 0 .4496-.1.6087-.263l2.291-2.393.643.643c1.1742 1.175 3.085 1.174 4.2587 0zm-7.8248-.06l-1.9584-1.959 22.6903-21.73.998.998zm30.6588-27.703c-.355.354-.827.55-1.33.55-.292 0-.584-.07-.843-.199a.856.856 0 0 0-.988.16l-3.161 3.16-1.169.356-1.456-1.456.332-1.092 6.4132-4.495c.2608-.134.5537-.205.852-.205.5098 0 .989.199 1.3498.56.733.733.733 1.927 0 2.661z"/></svg>