<svg xmlns="http://www.w3.org/2000/svg" width="256" height="256" viewBox="0 0 67.7333 67.7333"><path d="M37.1022 43.028c-1.2412.308-2.2712 1.167-2.844 2.377-.297.626-.34.817-.34 1.613 0 .806.04.987.34 1.602.425.849 1.274 1.687 2.122 2.091.531.243.754.286 1.571.286.828 0 1.04-.04 1.56-.297.933-.456 1.613-1.135 2.0688-2.069.3612-.732.4032-.891.4032-1.666 0-.753-.04-.933-.35-1.56-.595-1.21-1.592-2.037-2.834-2.355-.731-.202-.976-.202-1.697-.02zm1.411 1.772c1.497.319 2.154 2.048 1.327 3.481-.572.976-2.249 1.284-3.247.583-1.475-1.05-1.0822-3.565.616-4.021.668-.181.678-.181 1.304-.04zm-5.878-13.592c-2.929.318-5.624 1.634-7.736 3.767-1.538 1.56-2.759 3.682-3.31 5.751-.361 1.4-.456 3.862-.202 5.263.499 2.653 1.634 4.733 3.672 6.759 1.782 1.772 3.427 2.727 5.804 3.364.944.266 1.209.287 3.003.287 1.793 0 2.0578-.02 3.003-.287 2.334-.626 4.011-1.591 5.761-3.31 2.101-2.069 3.3638-4.467 3.757-7.142.2008-1.39.09-3.661-.255-4.955-.339-1.284-1.326-3.322-2.101-4.351-1.931-2.568-4.7642-4.361-7.831-4.966-1.0292-.212-2.61-.287-3.565-.18zm3.141 1.92c1.007.149 2.27.584 3.257 1.104 2.6738 1.411 4.51 3.756 5.3688 6.823.191.689.223 1.114.223 2.726.011 1.677-.019 2.017-.233 2.812-1.1568 4.234-4.3408 7.163-8.563 7.906-2.557.445-5.401-.04-7.523-1.295-3.332-1.942-5.253-5.369-5.264-9.327 0-3.194 1.093-5.836 3.268-7.916 2.537-2.408 5.805-3.384 9.466-2.833zM6.967 11.524c-.34.329-.34.796-.01 1.189l.254.297 2.059.06c1.994.07 2.472.117 3.3.318l.392.106V19.341l-.233-.06c-1.857-.477-2.292-.467-2.897.05-.413.372-.424.382-1.432 4.213-.754 2.801-.754 2.971-.128 3.639.382.403.467.435 2.537.976l2.153.552v24.724l-3.13 3.13c-2.992 3.006-3.13 3.154-3.13 3.536 0 .552.371.923.923.923.371 0 .52-.127 2.854-2.451l2.462-2.462.04 2.197.03 2.207.297.254c.328.276.859.34 1.146.117.371-.286.413-.562.413-2.748v-2.143l2.525 2.514c2.271 2.26 2.557 2.515 2.876 2.515.244 0 .435-.1.658-.308.605-.615.626-.584-2.876-4.096l-3.183-3.183V29.234l3.639.955 3.65.966-.955 1.061c-2.164 2.44-3.543 5.157-4.222 8.33-.319 1.496-.351 4.71-.06 6.26.807 4.244 3.268 8.192 6.791 10.812.329.255.605.51.605.584 0 .06-.106.552-.234 1.093-.223.923-.223.976-.04 1.252.35.531.997.605 1.432.17.09-.09.244-.477.329-.849.07-.361.18-.679.223-.711.05-.02.361.09.7.255 1.92.965 4.764 1.613 7.141 1.613s5.221-.648 7.142-1.613c.339-.17.647-.276.7-.255.04.03.148.361.223.722.222 1.05.87 1.443 1.517.933.413-.329.435-.551.17-1.666l-.244-1.008.254-.212c1.4538-1.135 2.281-1.878 2.992-2.674 2.091-2.366 3.523-5.231 4.139-8.265.34-1.687.34-4.818 0-6.409-.69-3.205-2.059-5.91-4.2442-8.362l-.9448-1.061 3.65-.966 3.64-.955v24.203l-3.1832 3.184c-3.501 3.512-3.4798 3.48-2.875 4.096.223.212.413.308.658.308.318 0 .6052-.255 2.875-2.515l2.5252-2.515v4.468l.2768.286c.3072.298.7422.361 1.1242.16.425-.223.51-.701.51-2.823v-1.984l2.472 2.462c2.345 2.334 2.4938 2.462 2.865 2.462.552 0 .923-.372.923-.924 0-.381-.138-.53-3.13-3.533l-3.13-3.13V28.714l2.155-.551c2.069-.541 2.1528-.574 2.536-.977.626-.668.626-.838-.128-3.639-1.007-3.831-1.018-3.841-1.432-4.213-.6052-.52-1.04-.53-2.886-.05l-.244.06V13.497l.403-.105c.817-.202 1.294-.244 3.29-.319l2.058-.06.254-.297c.329-.392.329-.859-.011-1.188-.244-.255-.297-.266-1.825-.266-2.239 0-4.107.234-4.828.594-.233.128-.34.117-.679-.02-.764-.319-1.921-.478-4.107-.542-2.058-.06-2.207-.05-2.419.138-.128.106-.266.308-.318.446-.138.361.126.913.498 1.061.17.06 1.189.138 2.271.159 1.305.03 2.217.117 2.737.234l.764.18v6.335l-.552.159c-.307.09-3.003.806-5.994 1.591-2.993.785-5.55 1.507-5.688 1.592-.339.233-.71.923-.71 1.348 0 .201.191 1.05.424 1.899.223.838.403 1.549.382 1.56-.011.02-.424-.117-.912-.297-1.231-.446-2.727-.807-3.947-.956l-1.04-.127v-5.37l2.854-.03c2.854-.03 2.854-.03 3.13-.286.382-.361.382-.934 0-1.295l-.276-.254H27.202l-.276.254c-.382.361-.382.934 0 1.295.276.254.276.254 3.13.286l2.855.03v5.38l-.711.07c-1.189.117-2.663.457-3.958.902-.668.223-1.23.403-1.241.382-.01-.01.17-.71.392-1.549.234-.849.425-1.698.425-1.899 0-.499-.445-1.22-.87-1.422-.1905-.08-2.8325-.817-5.8675-1.613-3.035-.795-5.677-1.496-5.858-1.548l-.35-.117V13.507l.775-.18c.509-.117 1.421-.201 2.726-.233 1.083-.02 2.101-.09 2.261-.159.562-.212.7-.966.265-1.432l-.244-.266-2.228.06c-2.218.05-3.353.202-4.128.531-.34.137-.446.148-.679.02-.722-.36-2.589-.594-4.828-.594-1.528 0-1.581.01-1.825.266zm11.608 11.195c4.001 1.05 7.29 1.942 7.322 1.973.06.05.01.276-.807 3.3-.392 1.497-.52 1.836-.668 1.836-.213 0-14.665-3.799-14.739-3.873-.03-.04 1.241-4.987 1.337-5.168.02-.04.1-.05.17-.03.07.03 3.396.913 7.385 1.963zm38.847.668c.371 1.38.647 2.537.626 2.568-.07.06-14.537 3.874-14.739 3.874-.148 0-.307-.478-.838-2.42-.35-1.337-.647-2.493-.647-2.589 0-.116.202-.222.669-.35 7.29-1.952 14.144-3.724 14.197-3.672.03.03.361 1.2.732 2.589zm-20.988 5.264c1.464.254 2.578.604 3.915 1.241.881.425 1.03.531 1.146.849.202.573.944 1.04 1.613 1.019.573-.01 2.44 1.857 3.639 3.639 1.0288 1.528 1.8678 3.587 2.26 5.539.2658 1.337.2658 4.276-.011 5.709-.552 2.992-1.899 5.645-3.937 7.788-.955.998-2.186 2.005-2.971 2.441-.233.126-.615.35-.848.488-.733.445-2.176 1.007-3.396 1.326-3.629.934-7.534.562-10.717-1.018-1.984-.977-2.992-1.709-4.403-3.195-2.027-2.111-3.279-4.488-3.947-7.533-.339-1.528-.339-4.701.01-6.293.7-3.236 2.557-6.398 4.881-8.329.52-.435.743-.541 1.178-.594.648-.09 1.21-.477 1.39-.987.117-.318.266-.425 1.146-.849 1.517-.721 2.982-1.146 4.733-1.368.986-.128 3.193-.06 4.318.127zM53.146 6.972c-.1688.17-.2868.414-.308.659-.03.36-.06.392-.5088.52-.647.191-2.4622.35-3.947.35-1.135 0-1.263.02-1.517.244-.415.35-.415.966 0 1.326l.318.266 2.069-.06c2.111-.07 3.331-.233 4.095-.541.382-.159.467-.159.807-.01.69.286 2.228.487 4.202.551 2.091.07 2.334.03 2.557-.467.191-.413.138-.668-.191-.997-.308-.308-.3182-.308-1.623-.308-1.464-.01-3.12-.148-3.831-.328-.446-.106-.477-.138-.541-.541-.1382-.872-1.008-1.233-1.5812-.66zm-39.7908-.06c-.192.148-.297.361-.34.679-.07.446-.09.477-.552.584-.71.18-2.366.318-3.83.328-1.305 0-1.316 0-1.624.308-.329.329-.382.584-.191.997.222.499.467.541 2.557.467 1.974-.06 3.47-.265 4.202-.551.372-.149.446-.149.828.01.722.308 1.942.467 4.074.541l2.069.06.287-.254c.425-.382.435-.923.03-1.316-.245-.254-.319-.266-1.507-.266-2.525 0-4.404-.297-4.468-.689-.07-.531-.148-.7-.36-.902-.296-.276-.827-.276-1.177 0z"/></svg>