<svg xmlns="http://www.w3.org/2000/svg" width="256" height="256" viewBox="0 0 67.7333 67.7333"><path d="M36.641 18.819h-5.5498c-.549 0-.992.444-.992.992 0 .547.443.991.992.991h5.55c.548 0 .992-.444.992-.991 0-.548-.445-.992-.992-.992zm0-3.993h-5.5498c-.549 0-.992.443-.992.991 0 .547.443.991.992.991h5.55c.548 0 .992-.444.992-.991 0-.548-.445-.991-.992-.991zm0-3.994h-5.5498c-.549 0-.992.443-.992.991 0 .547.443.991.992.991h5.55c.548 0 .992-.444.992-.991 0-.548-.445-.991-.992-.991zm25.5274 2.139c0-.547-.4443-.991-.9922-.991h-19.579V7.619c0-.547-.443-.991-.9918-.991H27.1262c-.548 0-.992.444-.992.991v4.361H6.5552c-.547 0-.991.444-.991.991v47.144c0 .547.444.991.992.991h4.757c.548 0 .991-.444.991-.991v-3.657h17.017l-.236.7c-.177.519.104 1.082.618 1.257.105.04.214.05.32.05.413 0 .798-.26.938-.673l.455-1.338h1.459v1.053c0 .547.444.991.992.991.547 0 .992-.444.992-.991v-1.053h1.458l.456 1.338a.99.99 0 0 0 .938.673c.105 0 .213-.02.319-.05.518-.176.796-.738.619-1.257l-.237-.7h17.017v3.657c0 .547.444.991.991.991h4.757c.548 0 .992-.444.992-.991zM7.5462 31.01v-2.18h52.64v2.18zm52.639 1.983v.991h-2.432v-.991zm-4.414 0v.991h-2.181v-.991zm-4.163 0v.991h-2.1808v-.991zm-4.163 0v.991h-2.18v-.991zm-4.163 0v.991h-2.181v-.991zm-4.163 0v.991h-2.181v-.991zm-4.163 0v.991h-2.18v-.991zm-4.164 0v.991h-2.179v-.991zm-4.162 0v.991h-2.181v-.991zm-4.163 0v.991h-2.181v-.991zm-4.163 0v.991h-2.181v-.991zm-4.163 0v.991h-2.181v-.991zm-4.163 0v.991h-2.432v-.991zm18.139-24.382h11.497v14.47h-11.497zm-20.571 5.352h18.588v9.118h-1.211c-.547 0-.991.444-.991.991 0 .548.444.992.991.992h17.886c.547 0 .99-.444.99-.992 0-.547-.443-.991-.99-.991h-1.212v-9.118h18.589v12.884H7.546zm2.775 45.161h-2.775V40.723h2.775zm45.107-4.648H12.303V40.723h43.125zM7.546 38.741v-2.775h52.64v2.775zm49.865 20.383v-18.4h2.775v18.4z"/></svg>