<svg xmlns="http://www.w3.org/2000/svg" width="256" height="256" viewBox="0 0 67.7333 67.7333"><path d="M46.766 27.632h-.018c-.8008 0-1.5623.28-2.1457.857-.5976.592-.9426 1.415-.9465 2.247-.023 4.99-4.102 9.055-9.092 9.055h-1.3944c-4.99 0-9.069-4.084-9.092-9.074 0-.832-.3487-1.624-.9464-2.215-.5838-.577-1.345-.87-2.146-.87h-.018c-1.694 0-3.0724 1.36-3.0724 3.054 0 3.819 1.422 7.458 4.004 10.28 2.3515 2.571 5.4753 4.231 8.8768 4.769v2.815h-4.1218c-1.9887 0-3.6068 1.568-3.6068 3.555v1.547c0 .568.4615 1.082 1.0305 1.082H43.656c.569 0 1.0305-.514 1.0305-1.082v-1.547c0-1.987-1.618-3.555-3.6066-3.555h-4.122v-2.815c3.4015-.538 6.525-2.216 8.8768-4.788 2.582-2.822 4.004-6.442 4.004-10.261 0-1.694-1.3783-3.054-3.0727-3.054zM35.8297 43.801c-.5287.05-.9326.494-.9326 1.027v4.701c0 .57.4615 1.083 1.0305 1.083h5.1523c.8523 0 1.5457.641 1.5457 1.493v.567H25.1078v-.567c0-.852.6934-1.493 1.5457-1.493h5.1523c.569 0 1.0303-.513 1.0303-1.083v-4.701c0-.533-.4036-.977-.9323-1.027-6.8115-.65-11.948-6.304-11.948-13.153 0-.564.4593-1.027 1.0236-1.03.26 0 .506.104.702.299.2118.209.334.52.3353.81.028 6.121 5.0316 11.126 11.1527 11.126h1.3944c6.1212 0 11.1245-5.005 11.1528-11.126 0-.29.1236-.588.3352-.798.196-.194.4485-.31.7017-.305.565 0 1.0242.463 1.0242 1.028 0 6.848-5.1365 12.499-11.948 13.149zM34.564 13h-1.3946c-3.883 0-7.031 3.148-7.031 7.031V30.7c0 3.883 3.148 7.031 7.031 7.031h1.3944c3.8832 0 7.031-3.148 7.031-7.031V20.031h.0002c0-3.883-3.148-7.031-7.031-7.031zm4.97 11.335h-4.946c-.5692 0-1.0306.462-1.0306 1.031s.4614 1.03 1.0305 1.03h4.946v3.091h-4.946c-.5692 0-1.0306.462-1.0306 1.031s.4614 1.03 1.0305 1.03h4.8248c-.4156 2.268-2.45 4.123-4.891 4.123H33.127c-2.7405 0-4.928-2.31-4.928-5.051V19.951c0-2.74 2.1875-4.89 4.928-4.89h1.3945c2.4612 0 4.5092 1.752 4.9014 4.122h-4.835c-.569 0-1.0305.461-1.0305 1.03s.4614 1.031 1.0305 1.031h4.9462v3.091z"/></svg>